<svg width="325" height="64" viewBox="0 0 325 64" xmlns="http://www.w3.org/2000/svg"><title>logo-akroma-web-wallet</title><g fill="none" fill-rule="evenodd"><g fill-rule="nonzero"><g transform="translate(63 26)" fill="#FFF"><path d="M26.104374 9.71305684L23.8966745 12.2298003 23.8966745 15.3757296 17.7151159 15.3757296 17.7151159 0.340809012 23.8966745 0.340809012 23.8966745 6.16077829 29.0078334 0.36702509 35.7379718 0.36702509 30.1986531 6.23942652 36.0724717 15.3495136 29.2754333 15.3495136z"/><path d="M48.436.459l-.576 5.007c-.187-.144-.455-.249-.79-.328a5.128 5.128 0 0 0-1.136-.118c-.964 0-1.74.25-2.329.76-.588.512-.883 1.259-.883 2.229v7.38h-6.195V.393h5.54l.187 3.513c.361-1.219.923-2.163 1.686-2.818.75-.655 1.713-.983 2.877-.983.709-.013 1.257.105 1.619.354zm14.263 1.69c1.458 1.364 2.194 3.29 2.194 5.742 0 2.451-.736 4.378-2.194 5.741-1.459 1.364-3.506 2.058-6.142 2.058-2.636 0-4.683-.681-6.141-2.058-1.459-1.363-2.194-3.29-2.194-5.741 0-2.451.735-4.378 2.194-5.741C51.874.786 53.92.092 56.557.092S61.24.773 62.7 2.15zm-7.774 2.91c-.321.525-.468 1.469-.468 2.832 0 1.363.16 2.307.468 2.831.321.525.856.8 1.632.8.776 0 1.325-.262 1.633-.8.32-.524.468-1.468.468-2.831s-.16-2.307-.468-2.831c-.322-.525-.857-.8-1.633-.8s-1.311.262-1.632.8zm35.35-3.617c.896.904 1.351 2.163 1.351 3.814V15.39h-6.181V6.75c0-.76-.134-1.311-.388-1.639-.255-.328-.643-.498-1.151-.498-.656 0-1.164.236-1.512.721-.361.485-.535 1.193-.535 2.123v7.918h-6.182V6.738c0-.76-.134-1.311-.388-1.639-.254-.328-.642-.498-1.15-.498-.63 0-1.138.236-1.499.72-.361.486-.549 1.207-.549 2.164v7.89H65.91V.394h5.566l.147 3.094c.468-1.101 1.15-1.94 2.034-2.517.883-.577 1.953-.865 3.198-.865 1.164 0 2.14.262 2.957.773.802.525 1.378 1.272 1.726 2.255.468-.983 1.137-1.73 2.02-2.255.883-.524 1.9-.773 3.064-.773 1.539-.013 2.756.432 3.653 1.337zm18.504 10.604h-.187c-.71 0-1.07-.393-1.07-1.206V6.043c0-3.972-2.556-5.964-7.654-5.964-2.26 0-4.027.445-5.285 1.324-1.258.878-1.993 2.11-2.22 3.71h5.364c.108-.224.255-.407.415-.538.388-.315.883-.46 1.499-.46.548 0 .977.158 1.284.486.308.315.455.773.455 1.35v.564l-3.238.655c-2.14.42-3.68 1.023-4.59 1.796-.922.773-1.377 1.796-1.377 3.054 0 1.18.401 2.084 1.204 2.713.803.63 1.98.944 3.532.944 1.365 0 2.502-.21 3.412-.642.91-.433 1.592-1.023 2.034-1.783.24.8.75 1.403 1.512 1.81.763.405 1.726.615 2.89.615.71 0 1.378-.157 1.994-.445v-3.186h.026zm-7.385-1.664c0 .563-.201.996-.602 1.31-.402.315-.857.46-1.392.46-.388 0-.696-.106-.937-.302-.24-.197-.347-.485-.347-.865 0-.774.535-1.298 1.592-1.56l1.686-.42v1.377zm-84.91 1.677c-.709 0-1.07-.393-1.07-1.206V6.056c0-3.972-2.556-5.964-7.654-5.964-2.26 0-4.027.445-5.285 1.324C1.245 2.28.508 3.486.268 5.033H5.66c.107-.183.227-.34.374-.458.388-.315.883-.46 1.499-.46.549 0 .977.158 1.284.486.308.315.455.773.455 1.35v.564l-3.238.655c-2.14.42-3.68 1.023-4.589 1.796C.522 9.739.067 10.762.067 12.02c0 1.18.401 2.084 1.204 2.713.803.63 1.98.944 3.532.944 1.365 0 2.502-.21 3.412-.642.91-.433 1.593-1.023 2.034-1.783.24.8.75 1.403 1.512 1.81.763.405 1.726.615 2.89.615.763 0 1.472-.17 2.14-.524v-3.12c-.08.013-.186.026-.307.026zM9.3 10.382c0 .563-.2.996-.602 1.31-.401.315-.856.46-1.392.46-.388 0-.695-.106-.936-.302-.241-.197-.348-.485-.348-.865 0-.774.535-1.298 1.592-1.56l1.686-.42v1.377z"/></g><path fill="#CCC" d="M2.00863106 0L0 3.11612903 8.97188539 53.9225806 11.3822427 51.0774194z"/><path fill="#E6E6E6" d="M8.97188539 53.9225806L59.5893881 63 61.9997453 60.6967742 11.3822427 51.0774194z"/><path fill="#FFF" d="M2.00863106 0L45.7967881 15.3096774 61.9997453 60.6967742 11.3822427 51.0774194z"/><g transform="translate(7.097 4.742)"><path fill="#AA0087" d="M47.0689211 42.0135484L16.122612 34.683871 8.8647584 3.17032258 0 0 8.43625044 42.4606452 50.3630761 51.0232258 48.8365165 46.8503226"/><path fill="#F10000" d="M42.4356788 29.3051613L42.4356788 29.2916129 25.4828327 25.2406452 21.3048801 7.65483871 14.0871992 5.04 20.1532649 30.5516129 45.1004627 36.6077419 42.4356788 29.3051613"/><path fill="#CF0000" d="M24.9338069 25.8096774L41.5117085 30.5922581 42.4356788 29.2916129 26.1523764 24.4548387z"/><path fill="#AF0000" d="M43.6542483 36.2825806L41.5117085 30.5922581 42.4356788 29.2916129 45.1004627 36.6077419z"/><path fill="#AF0000" d="M26.1523764 24.4548387L21.3048801 7.65483871 20.2871737 8.9283871 24.9338069 25.8096774"/><path fill="#FFA600" d="M36.5570853 13.1419355L26.3398486 9.47032258 29.5536583 21.0948387 40.5877382 24.183871 36.5570853 13.1419355"/><path fill="#F17100" d="M38.6594524 23.6554839L40.5877382 24.1703226 36.5570853 13.1419355 26.3398486 9.47032258 26.8487018 11.163871 35.311734 14.1309677z"/><path fill="#E25D00" d="M36.5570853 13.1419355L35.311734 14.1174194 38.6594524 23.6554839 40.5877382 24.183871z"/><path fill="#CF0000" d="M21.3048801 7.65483871L20.2871737 8.9283871 14.529098 6.92322581 14.0871992 5.04z"/><path fill="#C2009D" d="M8.8647584 3.17032258L7.44532579 4.45741935 0.401726212 2.03225806 0 0z"/><path fill="#930077" d="M8.8647584 3.17032258L7.44532579 4.45741935 14.2612805 36.5535484 16.122612 34.683871z"/><path fill="#C2009D" d="M47.0689211 42.0135484L45.8369607 44.0729032 14.2612805 36.5535484 16.122612 34.683871z"/><path fill="#930077" d="M47.0689211 42.0135484L45.8369607 44.0729032 48.0598458 50.5490323 50.3630761 51.0232258z"/></g></g><text font-family="WorkSans-Light, Work Sans" font-size="30" font-weight="300" letter-spacing="-.5" fill="#FFF"><tspan x="177" y="41">web wallet</tspan></text></g></svg>